<?xml version="1.0" encoding="UTF-8"?>
<svg width="1440px" height="661px" viewBox="0 0 1440 661" version="1.1" xmlns="http://www.w3.org/2000/svg" xmlns:xlink="http://www.w3.org/1999/xlink">
    <!-- Generator: Sketch 47.1 (45422) - http://www.bohemiancoding.com/sketch -->
    <title>Desktop HD Copy 6</title>
    <desc>Created with Sketch.</desc>
    <defs></defs>
    <g id="Page-1" stroke="none" stroke-width="1" fill="none" fill-rule="evenodd">
        <g id="Desktop-HD-Copy-6">
            <g id="Layer-1" transform="translate(66.000000, 39.000000)">
                <g id="Group">
                    <polygon id="Polygon" stroke="#71AA62" stroke-width="2" opacity="0.587182971" points="498.404156 136 537.808312 158.75 537.808312 204.25 498.404156 227 459 204.25 459 158.75"></polygon>
                    <polygon id="Polygon" stroke="#69FC42" stroke-width="2" opacity="0.587182971" points="19.9185843 0 39.8371686 11.5 39.8371686 34.5 19.9185843 46 7.54951657e-15 34.5 -5.32907052e-15 11.5"></polygon>
                    <polygon id="Polygon" stroke="#55C737" stroke-width="2" opacity="0.26245471" points="70.5 23 80 28.4848276 80 39.4544827 70.5 44.9393102 61 39.4544827 61 28.4848276"></polygon>
                    <polygon id="Polygon" stroke="#55C737" stroke-width="2" opacity="0.529999971" points="542.5 118 552 123.484828 552 134.454483 542.5 139.93931 533 134.454483 533 123.484828"></polygon>
                    <polygon id="Polygon" stroke="#71AA62" stroke-width="3" opacity="0.144304801" points="769.25833 78 780.51666 84.5 780.51666 97.5 769.25833 104 758 97.5 758 84.5"></polygon>
                    <polygon id="Polygon" stroke="#55DB31" stroke-width="2" opacity="0.882302989" points="987.25833 169.555136 1012.75833 184.277568 1012.75833 213.722432 987.25833 228.444864 961.75833 213.722432 961.75833 184.277568"></polygon>
                </g>
                <g id="Group" transform="translate(635.000000, 347.000000) scale(-1, 1) rotate(-180.000000) translate(-635.000000, -347.000000) translate(39.000000, 115.000000)">
                    <polygon id="Polygon" stroke="#71AA62" stroke-width="2" opacity="0.587182971" points="586.319845 354.989635 632.674672 381.752607 632.674672 435.278551 586.319845 462.041523 539.965017 435.278551 539.965017 381.752607"></polygon>
                    <polygon id="Polygon" stroke="#69FC42" stroke-width="2" opacity="0.587182971" points="23.4321105 195 46.864221 208.528535 46.864221 235.585606 23.4321105 249.114141 1.24344979e-14 235.585606 -2.66453526e-15 208.528535"></polygon>
                    <polygon id="Polygon" stroke="#55C737" stroke-width="2" opacity="0.26245471" points="82.9358033 222.057071 94.1115499 228.509391 94.1115499 241.414031 82.9358033 247.866352 71.7600568 241.414031 71.7600568 228.509391"></polygon>
                    <polygon id="Polygon" stroke="#55C737" stroke-width="2" opacity="0.529999971" points="638.193947 333.814536 649.369694 340.266856 649.369694 353.171497 638.193947 359.623817 627.018201 353.171497 627.018201 340.266856"></polygon>
                    <polygon id="Polygon" stroke="#55C737" stroke-width="2" opacity="0.529999971" points="815.175747 0 826.351493 6.45232028 826.351493 19.3569608 815.175747 25.8092811 804 19.3569608 804 6.45232028"></polygon>
                    <polygon id="Polygon" stroke="#71AA62" stroke-width="3" opacity="0.144304801" points="904.951171 286.758761 918.195408 294.405325 918.195408 309.698451 904.951171 317.345015 891.706935 309.698451 891.706935 294.405325"></polygon>
                    <polygon id="Polygon" stroke="#55DB31" stroke-width="2" opacity="0.882302989" points="1161.40514 394.463708 1191.4032 411.783094 1191.4032 446.421866 1161.40514 463.741252 1131.40709 446.421866 1131.40709 411.783094"></polygon>
                </g>
            </g>
        </g>
    </g>
</svg>