<?xml version="1.0" encoding="UTF-8"?>
<svg width="1440px" height="661px" viewBox="0 0 1440 661" version="1.1" xmlns="http://www.w3.org/2000/svg" xmlns:xlink="http://www.w3.org/1999/xlink">
    <!-- Generator: Sketch 47.1 (45422) - http://www.bohemiancoding.com/sketch -->
    <title>Desktop HD Copy 6</title>
    <desc>Created with Sketch.</desc>
    <defs></defs>
    <g id="Page-1" stroke="none" stroke-width="1" fill="none" fill-rule="evenodd">
        <g id="Desktop-HD-Copy-6">
            <g id="Layer-2" transform="translate(28.000000, 78.000000)">
                <g id="Group-2" transform="translate(57.000000, 10.000000)">
                    <polygon id="Polygon" stroke="#55C737" stroke-width="5" opacity="0.100600091" points="29 0 58 16.7431578 58 50.2294734 29 66.9726312 1.77635684e-14 50.2294734 -8.8817842e-16 16.7431578"></polygon>
                    <polygon id="Polygon" stroke="#71AA62" stroke-width="2" opacity="0.237205616" points="544.114737 182 569.229473 196.5 569.229473 225.5 544.114737 240 519 225.5 519 196.5"></polygon>
                    <polygon id="Polygon" stroke="#71AA62" opacity="0.460427989" points="995.25833 82 1006.51666 88.5 1006.51666 101.5 995.25833 108 984 101.5 984 88.5"></polygon>
                </g>
                <g id="Group-2" transform="translate(691.000000, 171.000000) scale(-1, 1) rotate(-180.000000) translate(-691.000000, -171.000000) ">
                    <polygon id="Polygon" stroke="#55C737" stroke-width="5" opacity="0.0619338768" points="41 0 82 23.75 82 71.25 41 95 1.24344979e-14 71.25 -1.42108547e-14 23.75"></polygon>
                    <polygon id="Polygon" stroke="#71AA62" stroke-width="2" opacity="0.237205616" points="725 260 761 280.5 761 321.5 725 342 689 321.5 689 280.5"></polygon>
                    <polygon id="Polygon" stroke="#71AA62" opacity="0.460427989" points="1366 116 1382 125.25 1382 143.75 1366 153 1350 143.75 1350 125.25"></polygon>
                </g>
            </g>
        </g>
    </g>
</svg>